<?xml version="1.0" encoding="UTF-8"?>
<!DOCTYPE svg PUBLIC "-//W3C//DTD SVG 1.1//EN" "http://www.w3.org/Graphics/SVG/1.1/DTD/svg11.dtd">
<!-- Creator: CorelDRAW -->
<svg xmlns="http://www.w3.org/2000/svg" xml:space="preserve" width="6.48805in" height="6.48805in" version="1.1" style="shape-rendering:geometricPrecision; text-rendering:geometricPrecision; image-rendering:optimizeQuality; fill-rule:evenodd; clip-rule:evenodd"
viewBox="0 0 1144.68 1144.68"
 xmlns:xlink="http://www.w3.org/1999/xlink"
 xmlns:xodm="http://www.corel.com/coreldraw/odm/2003">
 <defs>
  <style type="text/css">
   <![CDATA[
    .fil1 {fill:none}
    .fil0 {fill:#FEFEFE;fill-opacity:0.490196}
   ]]>
  </style>
 </defs>
 <g id="Layer_x0020_1">
  <metadata id="CorelCorpID_0Corel-Layer"/>
  <g id="_1725420968496">
   <g>
    <path class="fil0" d="M572.34 70.69c165.11,0 298.95,133.85 298.95,298.95 0,165.11 -133.85,298.95 -298.95,298.95 -165.11,0 -298.95,-133.85 -298.95,-298.95 0,-165.11 133.85,-298.95 298.95,-298.95zm0 20c154.06,0 278.96,124.89 278.96,278.96 0,154.06 -124.89,278.96 -278.96,278.96 -154.06,0 -278.96,-124.89 -278.96,-278.96 0,-154.06 124.89,-278.96 278.96,-278.96z"/>
    <path class="fil0" d="M572.34 716.57c222.53,0 409.6,151.75 463.42,357.42l-20.72 0c-53.3,-194.49 -231.29,-337.42 -442.7,-337.42 -211.41,0 -389.4,142.93 -442.7,337.42l-20.72 0c53.81,-205.66 240.88,-357.42 463.42,-357.42z"/>
   </g>
   <polygon class="fil1" points="-0,0 1144.68,0 1144.68,1144.68 -0,1144.68 "/>
  </g>
 </g>
</svg>
