<?xml version="1.0" encoding="UTF-8"?>
<!DOCTYPE svg PUBLIC "-//W3C//DTD SVG 1.1//EN" "http://www.w3.org/Graphics/SVG/1.1/DTD/svg11.dtd">
<!-- Creator: CorelDRAW -->
<svg xmlns="http://www.w3.org/2000/svg" xml:space="preserve" width="6.96607in" height="4.50746in" version="1.1" style="shape-rendering:geometricPrecision; text-rendering:geometricPrecision; image-rendering:optimizeQuality; fill-rule:evenodd; clip-rule:evenodd"
viewBox="0 0 6966.07 4507.46"
 xmlns:xlink="http://www.w3.org/1999/xlink"
 xmlns:xodm="http://www.corel.com/coreldraw/odm/2003">
 <defs>
  <style type="text/css">
   <![CDATA[
    .fil0 {fill:#C9CACA}
    .fil1 {fill:#FEFEFE;fill-rule:nonzero}
   ]]>
  </style>
 </defs>
 <g id="Layer_x0020_1">
  <metadata id="CorelCorpID_0Corel-Layer"/>
  <g id="_2497853051952">
   <rect class="fil0" x="0" width="6966.07" height="4507.46"/>
   <path class="fil1" d="M2173.77 3682.94c-79.6,0 -144.14,-64.71 -144.14,-144.42l0 -2327.38c0,-79.76 66.14,-144.42 144.14,-144.42l2618.53 0c79.65,0 144.14,64.71 144.14,144.42l0 2327.38c0,79.76 -66.14,144.42 -144.14,144.42l-2618.53 0zm2472.02 -872.06l0 -1453.46 -2325.52 0 0 2034.81 1453.46 -1453.46 872.05 872.11zm0 411.06l-872.05 -872.06 -1042.35 1042.35 1914.4 0 0 -170.29zm-1744.11 -992.47c-160.57,0 -290.7,-130.13 -290.7,-290.7 0,-160.51 130.13,-290.65 290.7,-290.65 160.51,0 290.65,130.14 290.65,290.65 0,160.57 -130.13,290.7 -290.65,290.7z"/>
  </g>
 </g>
</svg>
