<?xml version="1.0" encoding="UTF-8"?>
<!DOCTYPE svg PUBLIC "-//W3C//DTD SVG 1.1//EN" "http://www.w3.org/Graphics/SVG/1.1/DTD/svg11.dtd">
<!-- Creator: CorelDRAW -->
<svg xmlns="http://www.w3.org/2000/svg" xml:space="preserve" width="7.04207in" height="7.04207in" version="1.1" style="shape-rendering:geometricPrecision; text-rendering:geometricPrecision; image-rendering:optimizeQuality; fill-rule:evenodd; clip-rule:evenodd"
viewBox="0 0 628.05 628.05"
 xmlns:xlink="http://www.w3.org/1999/xlink"
 xmlns:xodm="http://www.corel.com/coreldraw/odm/2003">
 <defs>
  <style type="text/css">
   <![CDATA[
    .fil1 {fill:#FEFEFE}
    .fil0 {fill:black;fill-opacity:0.501961}
   ]]>
  </style>
 </defs>
 <g id="Layer_x0020_2">
  <metadata id="CorelCorpID_0Corel-Layer"/>
  <g id="_1649574110832">
   <path class="fil0" d="M-0 0l628.05 0 0 628.05 -17.53 0c-0.25,-38.33 -59.85,-134.65 -59.85,-134.65 0,0 -144.8,-38.04 -152.41,-65.61 -4.75,-17.22 3.4,-47.64 10.2,-68.07 3.88,-5.14 7.46,-10.64 10.75,-16.45 6.63,-0.97 12.9,-2.49 16.22,-4.88 9.16,-6.58 25.47,-30.34 25.47,-57.53 0,-27.19 -13.74,-36.63 -17.2,-38.98l-0 -0 0 -0.2c0,-93.03 -36.54,-171.44 -127.13,-171.44 -90.59,0 -126.39,78.61 -126.39,171.64 -3.46,2.35 -17.2,11.79 -17.2,38.98 0,27.19 16.31,50.94 25.47,57.53 3.15,2.26 8.93,3.75 15.17,4.72 5.6,14.48 22.55,61.52 16.16,84.67 -7.61,27.58 -152.41,65.61 -152.41,65.61 0,0 -59.6,96.32 -59.85,134.65l-17.53 0 0 -628.05z"/>
   <path class="fil1" d="M212.32 344.85c0.06,0.72 0.49,1.61 0.74,2.29l4.14 11.55c0.62,1.78 0.75,3.82 2.79,3.82 1.03,0 1.78,-0.81 1.78,-1.96 0,-1.02 -4.08,-12.23 -4.76,-13.97 -0.32,-0.83 -0.57,-1.48 -0.88,-2.33 -1.28,-3.59 -0.58,-2.76 -3.02,-3.22 -4.79,-0.9 -10.85,-1.79 -14.58,-5.05l-0.7 -0.55c-0.05,-0.03 -0.18,-0.11 -0.23,-0.13 -0.58,-0.3 0.03,-0.26 -0.63,-0.26 -1.63,0 -4.56,1.99 1.06,5.36 0.77,0.47 1.54,0.86 2.45,1.3 2.2,1.06 6.15,2.06 8.67,2.57 0.94,0.19 2.31,0.51 3.17,0.58z"/>
   <path class="fil1" d="M323.8 68.54l-1.96 0c-2.03,0 -2.3,2.93 -0.42,3.63l12.49 1.06c1.93,0.26 3.91,0.58 5.89,0.89 2.37,0.38 3.38,-1.95 2.1,-3.17 -1.28,-1.2 -9.82,-1.84 -11.53,-2.03 -2.12,-0.22 -4.2,-0.38 -6.46,-0.39l-0.11 0z"/>
   <path class="fil1" d="M90.84 491.49c1.83,0 13.71,-3.73 15.94,-4.4 1.79,-0.53 4.04,-0.78 4.04,-2.74 0,-1.19 -0.92,-1.78 -2.14,-1.78 -0.72,0 -2.19,0.55 -2.97,0.78 -1.05,0.3 -1.9,0.53 -2.89,0.85 -3.84,1.23 -8.03,2.23 -11.76,3.4 -3.33,1.05 -1.74,3.89 -0.22,3.89z"/>
   <path class="fil1" d="M17.53 614.22c0,2.2 3.03,2.83 3.78,0.57l2.17 -7.99c0.55,-1.86 1.05,-3.32 1.65,-5.13 0.31,-0.94 1.67,-4.61 1.67,-5.28 0,-0.29 -0.34,-0.91 -0.5,-1.11 -0.96,-1.15 -2.67,-0.85 -3.31,0.69 -1.09,2.64 -5.47,16.3 -5.47,18.26z"/>
   <path class="fil1" d="M441.71 242.82l1.55 1.12c0.65,0.48 1.01,0.7 1.62,1.24 1.38,1.21 2.34,2.28 3.61,2.28 0.62,0 3.76,-1.42 -0.18,-4.46 -0.66,-0.51 -1.89,-1.75 -2.68,-1.96 0,-2.45 0.13,-5.27 0,-7.67 -0.04,-0.79 -0.18,-0.86 -0.19,-1.78 -0.02,-1.32 0.23,-2.51 -0.44,-3.48 -0.32,-0.47 -0.77,-0.81 -1.33,-0.81 -3.15,0 -1.95,3.9 -1.96,6.6 -0.01,2.97 -0,5.95 -0,8.92z"/>
   <path class="fil1" d="M229.09 398.37c3.1,0 1.95,-3.19 1.59,-4.98 -0.42,-2.08 -2.99,-15.3 -4.16,-16.36 -1.57,-1.43 -3.13,0.19 -3.23,1.04 -0.07,0.62 1.85,8.06 2.09,9.02 0.8,3.17 1.26,6.26 1.9,9.34 0.21,1 0.66,1.94 1.81,1.94z"/>
   <path class="fil1" d="M455.98 261.37l1.53 5.6c0.52,2.03 0.75,3.87 0.99,6.14 0.09,0.89 0.32,2.24 0.33,3.23 0.03,2.11 -0.38,5 1.98,5.08 2.42,0.08 1.94,-2.86 1.94,-4 0,-3.17 -0.81,-8.78 -1.61,-11.95 -0.71,-2.8 -1.14,-6.76 -3.7,-6.04 -0.77,0.22 -1.47,0.9 -1.47,1.94z"/>
   <path class="fil1" d="M611.88 622.06l0 -0.07c-0,-1.54 -0.08,-1.85 -0.37,-3.3l-1.13 -5.29c-0.74,-2.92 -1.79,-7.42 -2.8,-10.04 -0.96,-2.49 -3.98,-1.43 -3.79,0.58 0.05,0.48 3.45,11.74 4.15,17.08 0.18,1.41 0.3,2.33 1.59,2.71 1.05,0.31 2.35,-0.4 2.35,-1.65z"/>
   <path class="fil1" d="M189.13 218.02l0 0.89c0,2.03 3.1,2.33 3.67,0.46l0.61 -6.35c0.2,-3.54 1.25,-10.55 1.25,-13.02 0,-1.99 -3.01,-2.32 -3.64,-0.43 -0.27,0.81 -0.34,2.07 -0.44,2.95l-0.72 6.06c-0.22,2.88 -0.73,6.86 -0.73,9.44z"/>
   <path class="fil1" d="M437.96 191.8c0,1.22 1.37,9.9 1.57,11.8l0.64 5.96c0.18,1.28 0.02,1.86 0.86,2.53 0.75,0.6 1.55,0.74 2.34,0.09 0.64,-0.53 0.96,-1.13 0.8,-2.32l-1.06 -9.12c-0.23,-1.88 -0.52,-3.94 -0.83,-5.77 -0.43,-2.54 -0.17,-4.61 -2.52,-4.61 -0.77,0 -1.78,0.94 -1.78,1.43z"/>
   <path class="fil1" d="M524.65 486.31c0,2.22 1.77,2.32 4,2.96 1.61,0.46 14.75,4.36 15.8,4.36 1.29,0 1.96,-1.2 1.96,-1.78 0,-1.99 -2.29,-2.22 -3.9,-2.7 -1.74,-0.51 -3.48,-0.94 -5.31,-1.47l-10.41 -2.97c-0.6,0 -1.03,0.11 -1.39,0.4 -0.21,0.17 -0.75,0.89 -0.75,1.21z"/>
   <path class="fil1" d="M489.15 475.25c0,1.1 0.26,1.74 1.37,2.2l12.79 4.16c1.47,0.48 4.33,1.49 5.64,1.49 1.82,0 2.8,-2.85 0.21,-3.78l-17.76 -5.62c-1.31,-0.18 -2.25,0.99 -2.25,1.54z"/>
   <path class="fil1" d="M395.69 404.43c0,1.67 3.19,2.56 3.82,0.07 0.19,-0.76 0.31,-2.13 0.41,-2.8 0.28,-1.97 0.56,-3.48 0.87,-5.37 0.26,-1.6 2.04,-9.53 2.04,-10.63 0,-1.78 -2.79,-2.62 -3.68,-0.47 -0.63,1.51 -2.76,13.67 -3.1,16.16 -0.14,1 -0.35,1.9 -0.35,3.04z"/>
   <path class="fil1" d="M29.84 579.25c0,1.66 2.59,3.29 3.92,0.36l3.29 -7.42c0.76,-1.84 4.38,-8.54 4.38,-9.89 0,-1.6 -2.45,-2.95 -3.87,-0.3l-3.44 7.26c-0.59,1.33 -4.28,9.1 -4.28,9.99z"/>
   <path class="fil1" d="M171.11 277.78c0,3.5 -0.04,5.61 0.19,9.09 0.25,3.72 3.64,2.96 3.9,1.07 0.08,-0.56 -0.42,-8.51 -0.16,-11.75l0.88 -7.32c0,-0.41 -0.38,-0.88 -0.63,-1.15 -1.3,-1.41 -2.75,-0.14 -3.12,0.78 -0.52,1.31 -1.06,7.84 -1.06,9.29z"/>
   <path class="fil1" d="M589.94 568.91c0,1.76 1.33,3.76 2.04,5.45l3.26 7.44c0.39,0.89 0.68,1.59 1.07,2.5 0.86,2 1.19,4.05 3.08,4.05 0.81,0 1.78,-0.75 1.78,-2.14 0,-0.79 -4.27,-10.27 -5.04,-12.08l-2.16 -4.79c-1.42,-3.48 -4.03,-1.24 -4.03,-0.43z"/>
   <path class="fil1" d="M159.88 467.05c0,0.91 0.82,1.78 1.96,1.78 1.08,0 18.21,-6.6 18.77,-7.28 1.12,-1.34 0.03,-3.25 -1.47,-3.25 -0.55,0 -13.25,5.14 -15.09,5.78 -2.03,0.7 -4.17,1.02 -4.17,2.96z"/>
   <path class="fil1" d="M283.31 73.71c0,2.95 3.24,1.74 4.5,1.47 3.75,-0.79 9.57,-1.88 13.17,-2.17 1.11,-0.09 4.44,0.06 4.44,-1.98 0,-0.6 -0.11,-1.03 -0.4,-1.39 -0.9,-1.13 -2.58,-0.74 -4.34,-0.5 -5.14,0.71 -10.48,1.29 -15.52,2.67 -1.1,0.3 -1.86,0.57 -1.86,1.89z"/>
   <path class="fil1" d="M204.47 146.31c0,1.31 2.42,3.69 4.04,0.12 1.36,-2.97 2.25,-5.39 3.8,-8.5l2.74 -5.47c0.35,-0.71 1.26,-2.16 1.26,-2.71 0.02,-2.13 -2.61,-3.24 -3.89,-0.63l-3.62 7.08c-0.57,1.23 -4.34,9.39 -4.34,10.11z"/>
   <path class="fil1" d="M413.17 122.59c0,0.8 2.06,3.93 2.55,4.76l2.65 4.66c0.93,1.53 2.65,5.24 3.65,7.23 1.7,3.39 3.99,0.97 3.99,-0.24 0,-1.41 -6.88,-13.73 -8.67,-16.49 -0.78,-1.21 -2.12,-2.56 -3.52,-1.23 -0.23,0.22 -0.66,0.95 -0.66,1.3z"/>
   <path class="fil1" d="M426.01 341.46c0,3.91 6.2,0.79 7.97,-0.06 0.55,-0.27 0.86,-0.37 1.32,-0.64 1.99,-1.15 5.25,-4 6.66,-5.82l1.93 -2.17c0.32,-0.36 0.62,-0.83 0.75,-1.4 0.24,-1.08 -1.42,-3.96 -3.98,-0.76 -2.62,3.26 -6.12,6.68 -10.12,8.07 -2.57,0.9 -4.53,0.9 -4.53,2.79z"/>
   <path class="fil1" d="M225.16 432.8c0,1.15 1.95,3.15 3.9,0.51 1.01,-1.36 1.54,-2.27 2.19,-3.87 0.37,-0.9 0.44,-1.4 0.72,-2.49 0.77,-3.07 1.21,-7.38 1.21,-11.27 0,-3.13 -2.9,-3.18 -3.71,-1.57 -0.42,0.84 -0.2,2.4 -0.21,3.54 -0.01,0.92 -0.2,2.8 -0.31,3.61 -0.32,2.43 -0.5,4.43 -1.19,6.49 -0.92,2.78 -2.61,3.61 -2.61,5.06z"/>
   <path class="fil1" d="M403.89 367.87c0,1.26 0.84,1.96 2.14,1.96 1.7,0 2.17,-2.83 2.61,-4.35 0.27,-0.93 0.54,-1.62 0.85,-2.54 0.28,-0.82 0.52,-2.02 0.92,-2.64 1.21,-1.86 5.61,-6.95 5.61,-8.84 0,-1.26 -1.99,-3.11 -3.82,-0.43 -0.53,0.78 -0.9,1.36 -1.42,2.14 -0.96,1.44 -4.02,5.38 -4.32,6.38l-1.7 5.44c-0.18,0.56 -0.87,2.31 -0.87,2.88z"/>
   <path class="fil1" d="M554.97 503.62c0,1.07 0.64,1.81 1.06,2.51l6.73 11.65c0.45,0.82 0.87,1.52 1.3,2.27 0.58,1.01 0.78,1.77 2.15,1.77 1.18,0 1.97,-0.99 1.88,-2.1 -0.06,-0.72 -1.02,-2.19 -1.34,-2.73 -0.51,-0.89 -0.98,-1.69 -1.49,-2.61 -0.53,-0.94 -0.98,-1.67 -1.49,-2.61l-4.52 -7.79c-2.28,-4.27 -4.28,-1 -4.28,-0.36z"/>
   <path class="fil1" d="M194.3 452.78c0,3.72 4.51,0.98 4.79,0.87 4.54,-1.84 9.42,-5.07 13.76,-7.29 0.71,-0.36 1.22,-0.61 1.5,-1.36 0.67,-1.8 -0.99,-3.38 -2.99,-2.27 -5.27,2.93 -9.46,5.42 -15.16,8.03 -0.75,0.34 -1.9,0.71 -1.9,2.02z"/>
   <path class="fil1" d="M188.24 241.03c-1.5,0.4 -9.63,8.29 -9.63,10.88 0,0.91 0.82,1.78 1.96,1.78 1.24,0 2.22,-1.87 2.83,-2.7 1.9,-2.59 4.36,-5.08 7.02,-6.89 0.56,-0.38 1.13,-0.94 1.75,-1.11 0,-1.17 0.25,-5.86 -0.26,-6.69 -0.96,-1.54 -3.23,-1.23 -3.6,0.87 -0.18,1.01 -0.06,2.76 -0.06,3.86z"/>
   <path class="fil1" d="M193.95 181.81c0,2.2 3.12,2.87 3.85,0.46l1.79 -8.02c0.45,-1.81 0.89,-3.35 1.32,-5.1 0.21,-0.86 0.46,-1.71 0.69,-2.52 0.13,-0.44 0.73,-2.36 0.73,-2.65 0,-2.03 -2.89,-3.01 -3.86,-0.47 -0.56,1.47 -1.7,6.09 -2.1,7.71l-1.84 7.79c-0.15,0.76 -0.58,2.17 -0.58,2.81z"/>
   <path class="fil1" d="M388.91 94.76c0,1.47 1.34,2.05 2.54,3.17l3.03 2.68c0.63,0.63 1.22,1.3 1.87,1.87 2.33,2.05 3.53,3.68 5.53,5.71 0.66,0.67 1.06,1.56 2.36,1.56 0.87,0 1.78,-1.01 1.78,-1.96 0,-1.27 -2.23,-3 -3.14,-4.18 -1.12,-1.45 -2.41,-2.52 -3.69,-3.8 -0.93,-0.93 -7.15,-6.82 -7.98,-6.82 -1.11,0 -2.32,0.31 -2.32,1.78z"/>
   <path class="fil1" d="M63.73 513.25c0,1.03 0.87,1.78 2.14,1.78 1.43,0 2.71,-2.94 3.62,-4.58l3.03 -5.17c0.55,-0.99 4.39,-7.21 4.47,-7.76 0.24,-1.7 -2.1,-3.71 -3.85,-0.9l-6.89 11.67c-0.51,0.84 -2.53,4.16 -2.53,4.96z"/>
   <path class="fil1" d="M249.24 88.52c0,0.81 0.75,1.78 2.14,1.78 0.79,0 4.01,-2.2 4.92,-2.75 1.69,-1.02 3.29,-1.87 5.02,-2.83l5.18 -2.49c0.94,-0.4 1.96,-0.7 2.55,-1.38 1.01,-1.16 0.23,-4.08 -2.91,-2.73 -3.84,1.65 -6.75,3.31 -10.29,5.23 -0.85,0.46 -1.63,0.94 -2.46,1.46 -0.64,0.41 -3.13,1.83 -3.56,2.33 -0.22,0.25 -0.58,1.02 -0.58,1.39z"/>
   <path class="fil1" d="M454.19 462.77c0,2.06 1.37,2.26 3.94,3.19l7.5 2.85c0.91,0.34 1.72,0.65 2.63,0.94 0.85,0.28 1.61,0.59 2.5,0.89 0.6,0.2 2.04,0.87 2.7,0.87 2.12,0 2.92,-2.92 0.47,-3.85 -0.92,-0.35 -1.56,-0.57 -2.5,-0.89l-15.27 -5.6c-0.47,0 -1.01,0.27 -1.28,0.5 -0.21,0.18 -0.68,0.79 -0.68,1.11z"/>
   <path class="fil1" d="M45.89 545.89c0,0.35 0.43,1.09 0.66,1.3 1.11,1.06 2.56,0.51 3.45,-1.3l3.74 -7.14c0.94,-1.87 4.82,-8.25 4.82,-9.63 0,-0.27 -0.41,-0.84 -0.57,-1.03 -0.81,-0.91 -2.43,-1 -3.47,1.09 -0.27,0.54 -0.38,0.64 -0.65,1.13 -0.25,0.44 -0.35,0.75 -0.6,1.18l-6.27 11.75c-0.38,0.62 -1.1,1.78 -1.1,2.64z"/>
   <path class="fil1" d="M175.39 305.79c0,0.63 1.52,4.39 1.83,5.12 1.43,3.33 2.75,6.38 4.53,9.56 0.43,0.77 0.86,1.59 1.3,2.26 0.73,1.11 0.96,1.6 2.32,1.6 1.1,0 1.81,-1.13 1.7,-2.09l-4.08 -7.84c-1.61,-3.21 -2.28,-5.33 -3.51,-8.45 -0.58,-1.48 -0.74,-2.14 -2.32,-2.14 -1.07,0 -1.78,0.9 -1.78,1.96z"/>
   <path class="fil1" d="M124.74 478.82c0,3.3 3.76,1.57 4.79,1.23l14.63 -4.81c3.27,-1.06 2.03,-4.12 0.04,-4.03l-14.54 4.69c-2.22,0.74 -4.93,1.13 -4.93,2.92z"/>
   <path class="fil1" d="M450.63 315.42c0,1.06 2.2,4.01 4.34,-0.47l3.75 -9.45c0.38,-1.24 0.64,-2.24 1.03,-3.43 0.34,-1.05 0.69,-2.3 0.93,-3.55 0.3,-1.56 -0.89,-2.54 -1.67,-2.54 -2.31,0 -2.2,2.28 -2.75,4.21 -0.85,2.98 -2.41,7.6 -3.61,10.3 -0.36,0.81 -2.02,4.36 -2.02,4.93z"/>
   <path class="fil1" d="M408.35 438.33c0,-1.18 -0.45,-1.59 -1.4,-2.35 -2.33,-1.86 -5.22,-4.77 -6.38,-7.54 -1.78,-4.25 -0.36,-7.6 -3.46,-7.6 -0.69,0 -1.04,0.33 -1.37,0.77 -0.45,0.59 -0.46,0.89 -0.32,1.8 0.12,0.8 0.13,1.15 0.3,1.85 0.73,3.03 1.15,5.44 3.23,8.01 1.14,1.4 5.14,5.93 6.8,6.59 1.17,0.46 2.6,-0.2 2.6,-1.54z"/>
   <path class="fil1" d="M356.62 76.74c0,2.01 1.8,2.05 4.16,2.98 1.76,0.69 3.35,1.32 5.06,2.08 0.89,0.4 1.47,0.64 2.32,1.07l7.2 3.51c1.09,0 1.96,-0.78 1.96,-2.14 0,-1.45 -2.36,-2.34 -3.86,-3.09l-7.02 -3.33c-1.55,-0.68 -6.82,-2.86 -8.02,-2.86 -0.96,0 -1.78,0.81 -1.78,1.78z"/>
   <path class="fil1" d="M583.69 554.63c0.84,0 1.96,-0.93 1.96,-1.78 0,-0.91 -1.74,-4.01 -2.2,-4.94l-6.18 -11.83c-1.6,-3.29 -4.22,-1.44 -4.04,0.3 0.07,0.72 0.95,2.1 1.3,2.8l7.72 14.76c0.27,0.33 0.92,0.7 1.44,0.7z"/>
   <path class="fil1" d="M222.49 113.85c0,1.26 0.84,1.96 2.14,1.96 1.22,0 2.44,-2.08 3.67,-3.64l6.99 -8c0.67,-0.67 1.21,-1.2 1.87,-1.87 0.54,-0.54 2.46,-1.74 1.06,-3.47 -1.77,-2.19 -4.24,1.3 -5.7,2.76l-6.96 7.85c-0.57,0.7 -3.07,3.62 -3.07,4.42z"/>
   <path class="fil1" d="M420.3 447.6c0,1.28 0.15,1.73 1.48,2.44l11.89 5.77c2.14,0.95 3.81,2.14 5.71,2.14 0.5,0 1.43,-0.9 1.43,-1.96 0,-1.31 -0.94,-1.58 -1.9,-2.02 -4.79,-2.22 -8.97,-4.09 -13.68,-6.48 -0.76,-0.38 -1.79,-1.14 -2.57,-1.34 -1.25,-0.31 -2.36,0.76 -2.36,1.45z"/>
   <path class="fil1" d="M429.04 156.12c0,0.92 1.2,4.02 1.54,5.06l2.95 10.42c0.56,2.24 0.63,4.32 2.82,4.32 0.91,0 1.78,-0.94 1.78,-1.78l-4.39 -15.77c-0.63,-1.9 -0.84,-4.04 -2.92,-4.04 -0.97,0 -1.78,0.82 -1.78,1.78z"/>
  </g>
 </g>
</svg>
